<!-- icon666.com - MILLIONS vector ICONS FREE --><svg id="Layer_1" enable-background="new 0 0 512 512" viewBox="0 0 512 512" xmlns="http://www.w3.org/2000/svg" xmlns:xlink="http://www.w3.org/1999/xlink"><linearGradient id="SVGID_1_" gradientUnits="userSpaceOnUse" x1=".003" x2="511.997" y1="256" y2="256"><stop offset="0" stop-color="#e921c3"></stop><stop offset=".1018" stop-color="#cd29c0"></stop><stop offset=".3341" stop-color="#933ab8"></stop><stop offset=".5484" stop-color="#6548b3"></stop><stop offset=".7376" stop-color="#4452ae"></stop><stop offset=".8946" stop-color="#2f58ac"></stop><stop offset="1" stop-color="#285aab"></stop></linearGradient><path d="m256 0c-141.2 0-256 114.8-256 256s114.8 256 256 256 256-114.8 256-256-114.8-256-256-256zm0 480c-123.5 0-224-100.5-224-224s100.5-224 224-224 224 100.5 224 224-100.5 224-224 224zm83.9-204.2c-19.9-6.4-37.5-3.9-48.3 6.9l-5.6 5.6c-25.3-15.5-46.9-37.2-62.4-62.4l5.6-5.6c11.1-11.1 13.8-27.6 7.7-46.6-6.4-19.9-23.2-42.7-41.7-45.8-22.6-3.7-43.6 17.5-49.4 24.1-7 7.9-22.7 28.3-17.2 47.8 25 88.2 95.3 158.5 183.5 183.5 2.9.8 5.7 1.2 8.6 1.2 16.7 0 32.6-12.4 39.3-18.4 6.6-5.9 27.7-26.8 24-49.4-3.2-19.4-24.4-34.5-44.1-40.9zm1.8 63.6c-9.3 9.5-18.4 13.2-21.1 13.1-77.4-22.1-139.1-83.8-161.1-161.2-.1-2.7 3.7-11.8 13.1-21.1 8.4-8.3 15.2-10.7 17.2-10.7 4 1.8 14.5 13.7 17.6 27.4 1.1 5.1.8 9.1-.8 10.8l-14.2 14.2c-5 5-6.1 12.6-2.8 18.8 20.5 38.6 53.1 71.2 91.7 91.7 6.2 3.3 13.8 2.2 18.8-2.8l14.2-14.2c.8-.8 5.7-2.1 14.7.5 13.3 3.9 22.8 12.6 23.5 16 .1 1.6-2.1 8.7-10.8 17.5z" fill="url(#SVGID_1_)"></path></svg>